<svg width="210px" height="102px" viewBox="0 0 1050 510" version="1.1" xmlns="http://www.w3.org/2000/svg">
<g id="#ed1c24ff">
<path fill="#ed1c24" opacity="1.00" d=" M 255.39 0.00 L 255.73 0.00 C 267.25 46.86 278.17 93.87 289.42 140.80 C 317.64 149.04 342.55 168.03 357.80 193.17 C 363.26 202.06 367.47 211.69 370.44 221.68 C 417.39 232.84 464.42 243.69 511.34 254.96 C 464.44 266.43 417.37 277.26 370.41 288.48 C 362.26 316.25 343.60 340.73 318.98 355.94 C 309.74 361.73 299.68 366.12 289.24 369.25 C 278.15 416.17 266.98 463.10 255.90 510.00 L 255.45 510.00 C 254.95 505.65 253.76 501.43 252.76 497.18 C 242.58 454.51 232.43 411.84 222.25 369.18 C 211.99 366.10 202.09 361.77 192.99 356.11 C 168.12 340.87 149.41 316.17 141.15 288.22 C 97.01 277.97 52.93 267.44 8.81 257.13 C 6.04 256.50 3.28 255.79 0.58 254.93 C 47.44 243.56 94.44 232.73 141.33 221.47 C 144.29 211.48 148.54 201.87 154.01 193.00 C 169.30 167.86 194.25 148.96 222.47 140.72 C 232.53 98.05 242.69 55.41 252.78 12.75 C 253.74 8.52 255.06 4.35 255.39 0.00 M 244.44 155.65 C 211.82 159.08 181.76 179.80 166.79 208.95 C 154.58 232.13 152.19 260.20 160.18 285.14 C 167.93 309.89 185.81 331.20 208.74 343.29 C 230.69 355.04 257.07 358.07 281.13 351.78 C 306.88 345.22 329.60 327.88 342.82 304.85 C 354.66 284.54 358.83 259.96 354.51 236.86 C 349.77 210.45 333.71 186.40 311.31 171.68 C 291.83 158.67 267.70 152.95 244.44 155.65 Z" />
</g>
<g id="#43698fff">
<path fill="#43698f" opacity="1.00" d=" M 322.42 38.43 C 335.65 31.87 351.88 33.62 364.74 40.29 C 364.68 45.96 364.91 51.64 364.66 57.31 C 363.64 58.72 362.01 56.63 361.03 56.09 C 355.26 51.11 347.80 46.85 339.89 48.25 C 332.06 49.17 326.22 56.03 324.59 63.45 C 322.96 71.17 323.06 79.83 327.17 86.80 C 329.99 91.70 335.26 94.96 340.86 95.54 C 346.81 96.35 352.74 94.05 357.53 90.65 C 359.88 89.00 361.87 86.74 364.68 85.82 C 364.84 91.57 364.67 97.33 364.80 103.08 C 353.58 109.20 340.01 111.18 327.67 107.56 C 318.40 104.87 310.70 97.51 307.51 88.41 C 304.54 79.94 304.22 70.64 305.83 61.85 C 307.59 52.13 313.59 43.07 322.42 38.43 Z" />
<path fill="#43698f" opacity="1.00" d=" M 694.47 34.61 C 703.21 33.81 712.59 35.00 719.96 40.11 C 727.16 45.00 731.79 53.04 733.33 61.52 C 734.97 70.69 734.67 80.42 731.35 89.20 C 727.97 98.11 720.33 105.35 711.09 107.85 C 702.61 110.15 693.34 110.02 685.04 107.05 C 674.77 103.31 667.47 93.61 665.39 83.04 C 663.39 72.84 663.82 61.81 668.25 52.27 C 672.91 42.12 683.39 35.34 694.47 34.61 M 696.19 48.28 C 691.01 49.20 687.10 53.51 685.31 58.27 C 682.64 65.10 682.58 72.70 683.62 79.87 C 684.49 84.66 686.49 89.51 690.31 92.71 C 695.79 97.22 704.68 96.72 709.54 91.49 C 713.86 86.80 715.40 80.23 715.52 74.00 C 715.72 66.93 714.96 59.29 710.58 53.45 C 707.33 49.07 701.45 47.22 696.19 48.28 Z" />
<path fill="#43698f" opacity="1.00" d=" M 918.75 39.95 C 929.73 34.84 942.41 32.75 954.28 35.72 C 963.60 38.03 971.49 45.04 975.12 53.91 C 978.57 62.41 978.79 71.92 977.34 80.88 C 975.95 89.39 971.59 97.57 964.57 102.73 C 957.07 108.44 947.23 109.96 938.03 109.28 C 931.01 108.87 924.29 106.55 917.82 103.95 C 917.82 98.38 917.78 92.82 917.84 87.25 C 920.51 87.76 922.34 89.92 924.54 91.35 C 931.87 96.31 941.88 97.94 950.00 93.96 C 956.21 90.81 959.69 84.01 960.16 77.24 C 950.58 77.27 941.01 77.21 931.44 77.28 C 931.32 72.65 931.37 68.01 931.38 63.37 C 940.85 63.37 950.33 63.38 959.81 63.37 C 958.82 57.96 955.92 52.68 950.93 50.04 C 942.95 45.64 932.88 47.63 925.67 52.67 C 923.42 54.12 921.58 56.42 918.77 56.74 C 918.72 51.14 918.76 45.54 918.75 39.95 Z" />
<path fill="#43698f" opacity="1.00" d=" M 367.95 35.88 C 388.28 35.87 408.61 35.87 428.94 35.88 C 428.94 40.49 428.95 45.09 428.92 49.70 C 421.80 49.67 414.68 49.69 407.57 49.69 C 407.58 69.09 407.51 88.49 407.60 107.89 C 401.50 107.99 395.40 107.94 389.30 107.92 C 389.33 88.51 389.31 69.10 389.31 49.69 C 382.21 49.70 375.12 49.65 368.03 49.72 C 367.88 45.11 367.94 40.49 367.95 35.88 Z" />
<path fill="#43698f" opacity="1.00" d=" M 452.97 35.88 C 459.60 35.87 466.23 35.87 472.87 35.88 C 481.01 59.90 489.17 83.91 497.30 107.94 C 491.03 107.92 484.77 107.99 478.50 107.89 C 477.04 103.02 475.62 98.13 473.94 93.32 C 466.38 93.43 458.82 93.37 451.26 93.36 C 449.74 98.20 448.25 103.05 446.79 107.92 C 440.70 107.96 434.61 107.93 428.53 107.94 C 436.66 83.91 444.82 59.90 452.97 35.88 M 462.57 56.59 C 460.16 64.41 457.74 72.23 455.27 80.04 C 460.19 80.18 465.11 80.12 470.03 80.11 C 467.52 72.28 465.28 64.36 462.57 56.59 Z" />
<path fill="#43698f" opacity="1.00" d=" M 504.29 35.95 C 514.51 35.82 524.73 35.85 534.95 35.92 C 543.37 36.07 552.86 38.95 557.24 46.72 C 562.93 57.50 560.14 72.85 549.46 79.51 C 541.67 85.11 531.69 84.37 522.60 84.42 C 522.67 92.25 522.58 100.07 522.66 107.90 C 516.53 107.97 510.41 107.95 504.29 107.91 C 504.32 83.92 504.33 59.94 504.29 35.95 M 522.59 49.43 C 522.68 56.57 522.57 63.71 522.66 70.84 C 528.33 70.67 535.60 71.70 539.47 66.48 C 542.35 61.97 542.26 54.58 537.42 51.39 C 532.94 48.79 527.54 49.49 522.59 49.43 Z" />
<path fill="#43698f" opacity="1.00" d=" M 598.82 35.88 C 604.90 35.87 610.97 35.88 617.06 35.88 C 617.07 45.69 617.04 55.49 617.08 65.30 C 619.41 64.83 622.05 64.64 623.83 62.84 C 629.96 56.12 631.04 46.05 637.98 39.94 C 643.61 35.10 651.51 35.69 658.43 35.88 C 658.44 41.03 658.44 46.18 658.43 51.32 C 654.87 51.35 650.61 50.98 648.07 54.04 C 643.85 59.25 642.95 66.58 637.65 71.05 C 645.95 83.36 654.32 95.62 662.62 107.93 C 655.40 107.95 648.17 107.93 640.95 107.95 C 634.54 98.26 628.04 88.63 621.70 78.89 C 620.15 78.85 618.60 78.82 617.06 78.79 C 617.05 88.50 617.06 98.22 617.06 107.94 C 610.98 107.94 604.90 107.94 598.82 107.94 C 598.81 83.92 598.81 59.90 598.82 35.88 Z" />
<path fill="#43698f" opacity="1.00" d=" M 745.00 35.88 C 752.01 35.89 759.02 35.83 766.03 35.91 C 771.30 47.72 776.62 59.50 781.97 71.28 C 787.32 59.50 792.57 47.67 797.89 35.88 C 804.90 35.88 811.92 35.87 818.94 35.88 C 818.94 59.90 818.94 83.92 818.94 107.94 C 812.87 107.94 806.81 107.94 800.75 107.94 C 800.73 92.18 800.78 76.41 800.73 60.65 C 796.24 70.68 792.01 80.82 787.75 90.94 C 783.57 91.03 779.38 91.01 775.20 90.98 C 770.88 80.84 766.65 70.67 762.18 60.61 C 762.05 76.38 762.16 92.16 762.12 107.94 C 756.41 107.94 750.71 107.94 745.00 107.94 C 744.99 83.92 745.00 59.90 745.00 35.88 Z" />
<path fill="#43698f" opacity="1.00" d=" M 833.75 35.88 C 840.77 35.88 847.78 35.86 854.80 35.90 C 860.03 47.66 865.43 59.36 870.62 71.15 C 876.37 59.56 881.22 47.54 886.74 35.84 C 893.73 35.94 900.72 35.80 907.71 35.93 C 907.68 59.93 907.67 83.92 907.71 107.91 C 901.66 107.97 895.61 107.93 889.57 107.94 C 889.54 92.20 889.58 76.45 889.55 60.70 C 885.00 70.65 880.79 80.76 876.62 90.88 C 872.42 91.07 868.22 91.00 864.02 90.99 C 859.66 80.94 855.53 70.78 851.03 60.79 C 850.82 76.50 851.00 92.22 850.94 107.94 C 845.21 107.94 839.48 107.94 833.75 107.94 C 833.75 83.92 833.75 59.90 833.75 35.88 Z" />
<path fill="#43698f" opacity="1.00" d=" M 988.94 35.88 C 995.02 35.87 1001.10 35.87 1007.18 35.88 C 1007.19 44.65 1007.18 53.41 1007.19 62.18 C 1015.37 62.19 1023.56 62.20 1031.75 62.17 C 1031.75 53.41 1031.75 44.65 1031.75 35.88 C 1037.83 35.87 1043.91 35.88 1050.00 35.88 L 1050.00 107.94 C 1043.91 107.94 1037.83 107.94 1031.75 107.94 C 1031.75 97.32 1031.73 86.70 1031.77 76.08 C 1023.57 76.04 1015.37 76.06 1007.18 76.07 C 1007.19 86.69 1007.19 97.31 1007.18 107.94 C 1001.10 107.94 995.02 107.94 988.94 107.94 C 988.94 83.92 988.94 59.90 988.94 35.88 Z" />
<path fill="#43698f" opacity="1.00" d=" M 200.75 178.78 C 202.68 176.84 205.87 177.54 207.45 179.55 C 223.63 196.48 239.70 213.52 255.92 230.41 C 271.45 214.81 286.94 199.18 302.45 183.56 C 304.20 181.95 305.64 179.78 307.93 178.90 C 310.80 177.99 312.84 180.58 314.66 182.32 C 317.20 185.04 320.16 187.38 322.44 190.33 C 323.76 192.27 322.82 194.78 321.20 196.21 C 312.44 205.11 303.57 213.91 294.82 222.82 C 292.90 224.87 290.13 227.79 287.12 225.85 C 283.74 223.26 281.02 219.92 277.87 217.05 C 271.97 223.00 266.07 228.96 260.14 234.89 C 265.87 240.99 271.72 246.97 277.40 253.12 C 280.63 250.45 283.38 247.23 286.70 244.68 C 288.78 243.15 291.54 244.29 293.00 246.12 C 302.09 255.69 311.19 265.25 320.29 274.81 C 322.05 276.35 322.89 279.21 321.23 281.13 C 317.82 284.71 314.21 288.13 310.44 291.33 C 308.64 292.72 306.00 292.15 304.57 290.50 C 289.64 274.96 274.91 259.21 259.93 243.71 C 259.86 247.83 259.87 251.95 259.87 256.07 C 264.11 258.60 266.90 262.82 268.66 267.34 C 276.72 287.50 283.32 308.29 287.72 329.57 C 288.53 333.54 289.44 337.51 289.65 341.57 C 288.10 341.52 286.56 341.43 285.02 341.30 C 265.75 339.03 246.19 338.96 226.92 341.30 C 225.25 341.48 223.57 341.46 221.89 341.40 C 225.86 315.86 233.61 291.02 243.16 267.05 C 244.82 262.52 247.87 258.71 251.77 255.92 C 252.06 251.72 251.80 247.51 251.85 243.30 C 237.45 257.73 223.10 272.22 208.74 286.70 C 207.00 288.24 205.56 290.53 203.13 290.97 C 200.62 291.36 198.94 289.19 197.31 287.69 C 194.71 284.95 191.77 282.52 189.39 279.58 C 187.89 277.64 188.83 274.96 190.53 273.49 C 199.63 264.27 208.80 255.13 217.88 245.90 C 219.50 243.88 222.52 242.22 224.89 244.09 C 228.07 246.70 230.79 249.84 233.78 252.67 C 239.73 246.76 245.62 240.78 251.54 234.83 C 245.76 228.75 240.02 222.62 234.14 216.62 C 231.08 219.39 228.30 222.48 225.05 225.03 C 223.14 226.43 220.46 225.67 219.04 223.94 C 209.75 214.22 200.48 204.47 191.23 194.72 C 189.27 193.02 188.92 189.76 190.98 187.99 C 194.16 184.84 197.40 181.74 200.75 178.78 Z" />
</g>
<g id="#ffffffff">
<path fill="#ffffff" opacity="1.00" d=" M 244.44 155.65 C 267.70 152.95 291.83 158.67 311.31 171.68 C 333.71 186.40 349.77 210.45 354.51 236.86 C 358.83 259.96 354.66 284.54 342.82 304.85 C 329.60 327.88 306.88 345.22 281.13 351.78 C 257.07 358.07 230.69 355.04 208.74 343.29 C 185.81 331.20 167.93 309.89 160.18 285.14 C 152.19 260.20 154.58 232.13 166.79 208.95 C 181.76 179.80 211.82 159.08 244.44 155.65 M 200.75 178.78 C 197.40 181.74 194.16 184.84 190.98 187.99 C 188.92 189.76 189.27 193.02 191.23 194.72 C 200.48 204.47 209.75 214.22 219.04 223.94 C 220.46 225.67 223.14 226.43 225.05 225.03 C 228.30 222.48 231.08 219.39 234.14 216.62 C 240.02 222.62 245.76 228.75 251.54 234.83 C 245.62 240.78 239.73 246.76 233.78 252.67 C 230.79 249.84 228.07 246.70 224.89 244.09 C 222.52 242.22 219.50 243.88 217.88 245.90 C 208.80 255.13 199.63 264.27 190.53 273.49 C 188.83 274.96 187.89 277.64 189.39 279.58 C 191.77 282.52 194.71 284.95 197.31 287.69 C 198.94 289.19 200.62 291.36 203.13 290.97 C 205.56 290.53 207.00 288.24 208.74 286.70 C 223.10 272.22 237.45 257.73 251.85 243.30 C 251.80 247.51 252.06 251.72 251.77 255.92 C 247.87 258.71 244.82 262.52 243.16 267.05 C 233.61 291.02 225.86 315.86 221.89 341.40 C 223.57 341.46 225.25 341.48 226.92 341.30 C 246.19 338.96 265.75 339.03 285.02 341.30 C 286.56 341.43 288.10 341.52 289.65 341.57 C 289.44 337.51 288.53 333.54 287.72 329.57 C 283.32 308.29 276.72 287.50 268.66 267.34 C 266.90 262.82 264.11 258.60 259.87 256.07 C 259.87 251.95 259.86 247.83 259.93 243.71 C 274.91 259.21 289.64 274.96 304.57 290.50 C 306.00 292.15 308.64 292.72 310.44 291.33 C 314.21 288.13 317.82 284.71 321.23 281.13 C 322.89 279.21 322.05 276.35 320.29 274.81 C 311.19 265.25 302.09 255.69 293.00 246.12 C 291.54 244.29 288.78 243.15 286.70 244.68 C 283.38 247.23 280.63 250.45 277.40 253.12 C 271.72 246.97 265.87 240.99 260.14 234.89 C 266.07 228.96 271.97 223.00 277.87 217.05 C 281.02 219.92 283.74 223.26 287.12 225.85 C 290.13 227.79 292.90 224.87 294.82 222.82 C 303.57 213.91 312.44 205.11 321.20 196.21 C 322.82 194.78 323.76 192.27 322.44 190.33 C 320.16 187.38 317.20 185.04 314.66 182.32 C 312.84 180.58 310.80 177.99 307.93 178.90 C 305.64 179.78 304.20 181.95 302.45 183.56 C 286.94 199.18 271.45 214.81 255.92 230.41 C 239.70 213.52 223.63 196.48 207.45 179.55 C 205.87 177.54 202.68 176.84 200.75 178.78 Z" />
</g>
</svg>
